<svg xmlns="http://www.w3.org/2000/svg" viewBox="0 0 24 24" fill="currentColor"><path d="M12 0C5.373 0 0 5.373 0 12s5.373 12 12 12 12-5.373 12-12S18.627 0 12 0zm3.248 7.002l-.623.755a.488.488 0 01-.632.107 3.72 3.72 0 00-1.86-.503c-.957 0-1.598.382-1.598.921 0 .571.586.762 1.546.948 1.757.34 3.284.918 3.284 2.773 0 1.572-1.18 2.655-3.073 2.916v1.248a.378.378 0 01-.378.378h-1.11a.378.378 0 01-.378-.378v-1.279c-1.077-.132-2.068-.54-2.792-1.11a.488.488 0 01-.064-.718l.701-.756a.488.488 0 01.65-.078 3.899 3.899 0 002.145.659c1.088 0 1.77-.407 1.77-.998 0-.565-.537-.793-1.612-.998-1.86-.354-3.218-.998-3.218-2.773 0-1.477 1.12-2.549 2.899-2.821V4.956c0-.209.169-.378.378-.378h1.11c.209 0 .378.169.378.378v1.2c.903.116 1.714.418 2.377.852a.488.488 0 01.1.716z"/></svg>
